<svg width="1650" height="390" viewBox="0 0 1650 390" fill="none" xmlns="http://www.w3.org/2000/svg">
<path d="M1642.15 6.5697L1496.1 173.027L1650 383.978H1565.2L1451.09 221.708L1416.02 259.92V383.978H1349.02V6.5697H1416.02V179.309L1564.68 6.5697H1642.15Z" fill="black"/>
<path d="M1148.43 0.811401C1201.82 0.811401 1240.03 11.8039 1278.24 42.6875L1242.12 93.9858C1211.24 67.8132 1182.45 62.5787 1148.43 62.5787C1103.41 62.5787 1058.39 85.0871 1058.39 178.785V217.52C1058.39 297.608 1100.79 327.445 1147.9 327.445C1182.97 327.445 1221.71 319.07 1251.55 288.186L1287.14 339.485C1242.12 383.455 1187.16 389.736 1145.29 389.736C1063.1 389.736 990.868 343.672 990.868 231.13V163.605C990.868 50.5393 1061.01 0.811401 1148.43 0.811401Z" fill="black"/>
<path d="M773.778 0.811401C859.624 0.811401 933.43 47.3986 933.43 164.128V226.419C933.43 345.243 860.671 389.736 773.778 389.736C686.885 389.736 614.125 345.243 614.125 226.419V164.128C614.125 47.3986 688.455 0.811401 773.778 0.811401ZM773.778 328.492C825.076 328.492 865.905 304.937 865.905 218.044V172.504C865.905 85.6106 825.076 62.0552 773.778 62.0552C723.526 62.0552 681.65 85.6106 681.65 172.504V218.044C681.65 304.937 723.526 328.492 773.778 328.492Z" fill="black"/>
<path d="M346.072 6.5697H413.073V327.446H585.289V383.978H346.072V6.5697Z" fill="black"/>
<path d="M0 383.978V6.5697H146.566C226.655 6.5697 265.39 36.9299 265.39 98.6972V109.69C265.39 142.667 250.733 174.598 205.717 185.59C251.78 192.395 282.664 219.091 282.664 271.436V284.523C282.664 346.29 244.452 383.978 162.793 383.978H0ZM66.4784 214.903V328.492H127.199C186.349 328.492 214.092 321.688 214.092 277.194V265.678C214.092 226.419 188.966 214.903 117.253 214.903H66.4784ZM117.777 62.0556H66.4784V160.464H115.683C168.028 160.464 197.341 158.894 197.341 111.783V102.361C197.341 70.4308 174.309 62.0556 117.777 62.0556Z" fill="black"/>
</svg>
